<svg width="13" height="18" viewBox="0 0 13 18" fill="none" xmlns="http://www.w3.org/2000/svg">
<path d="M1.71623 16.3759L1.71624 16.3759L1.71104 16.3737C1.35015 16.2212 1.04588 15.9738 0.832319 15.6639C0.619482 15.355 0.505015 14.9963 0.5 14.6303V2.98242C0.505015 2.61643 0.619482 2.25772 0.832319 1.94884C1.04588 1.63891 1.35015 1.39148 1.71104 1.23903L1.7111 1.23918L1.72266 1.23394C2.15376 1.0388 2.63473 0.963157 3.11018 1.01676C3.58441 1.07023 4.03147 1.24982 4.40102 1.53279L11.7638 7.3576L11.7637 7.35766L11.7707 7.36299C12.0004 7.53825 12.1841 7.75951 12.3097 8.00923C12.4353 8.25885 12.5 8.53124 12.5 8.80636C12.5 9.08148 12.4353 9.35387 12.3097 9.60349C12.1841 9.85321 12.0004 10.0745 11.7707 10.2497L11.7706 10.2497L11.7638 10.2551L4.39981 16.0809C3.95889 16.423 3.40558 16.6115 2.83243 16.6111C2.44657 16.6088 2.06616 16.5284 1.71623 16.3759Z" fill="#343434" stroke="white"/>
</svg>
