<svg width="29" height="42" viewBox="0 0 29 42" fill="none" xmlns="http://www.w3.org/2000/svg">
<g filter="url(#filter0_d_308_173)">
<path d="M0.643066 8.82145L17.9457 2.00525C19.258 1.48828 20.6788 2.4556 20.6788 3.86606V8.82145" fill="#E8E1E1"/>
<path d="M0.643066 8.82147H24.1431C25.2476 8.82147 26.1431 9.7169 26.1431 10.8215V37.7858C26.1431 38.8903 25.2476 39.7858 24.1431 39.7858H0.643066V8.82147Z" fill="#F73132"/>
<path d="M13.3929 25.2143C15.4048 25.2143 17.0357 23.5833 17.0357 21.5714C17.0357 19.5596 15.4048 17.9286 13.3929 17.9286C11.381 17.9286 9.75 19.5596 9.75 21.5714C9.75 23.5833 11.381 25.2143 13.3929 25.2143Z" fill="#F73132" stroke="white" stroke-width="3" stroke-linecap="round" stroke-linejoin="round"/>
<path d="M9.75 30.6786H17.0357H9.75Z" fill="#F73132"/>
<path d="M9.75 30.6786H17.0357" stroke="white" stroke-width="3" stroke-linecap="round" stroke-linejoin="round"/>
</g>
<defs>
<filter id="filter0_d_308_173" x="0.643066" y="1.86414" width="27.5" height="39.9216" filterUnits="userSpaceOnUse" color-interpolation-filters="sRGB">
<feFlood flood-opacity="0" result="BackgroundImageFix"/>
<feColorMatrix in="SourceAlpha" type="matrix" values="0 0 0 0 0 0 0 0 0 0 0 0 0 0 0 0 0 0 127 0" result="hardAlpha"/>
<feOffset dx="2" dy="2"/>
<feComposite in2="hardAlpha" operator="out"/>
<feColorMatrix type="matrix" values="0 0 0 0 0.129412 0 0 0 0 0.129412 0 0 0 0 0.113725 0 0 0 1 0"/>
<feBlend mode="normal" in2="BackgroundImageFix" result="effect1_dropShadow_308_173"/>
<feBlend mode="normal" in="SourceGraphic" in2="effect1_dropShadow_308_173" result="shape"/>
</filter>
</defs>
</svg>
